<?xml version="1.0" encoding="utf-8"?>
<!-- Generator: Adobe Illustrator 25.4.1, SVG Export Plug-In . SVG Version: 6.00 Build 0)  -->
<svg version="1.1" id="svg" xmlns="http://www.w3.org/2000/svg" xmlns:xlink="http://www.w3.org/1999/xlink" x="0px" y="0px"
	 viewBox="0 0 400 400" style="enable-background:new 0 0 400 400;" xml:space="preserve">
<style type="text/css">
	.st0{fill-rule:evenodd;clip-rule:evenodd;fill:#FFFFFF;}
</style>
<g id="svgg">
	<path id="path0" class="st0" d="M28.5,16.1c-6.3,3-9.7,9.7-7.3,14.4c1.5,3,126,127.2,128.8,128.5c8.6,4,18-5.5,13.9-14.2
		c-1-2.1-124.4-126-127.6-128.1C33.7,15.1,31.2,14.9,28.5,16.1 M76.4,15.7c-5.7,1.8-10.3,10.2-8,14.8c1.3,2.6,121.6,122.8,124,123.9
		c7.9,3.5,18.3-7.5,13.9-14.7C204.2,136.1,85,17.2,82.4,16C80.4,15.1,78.5,15,76.4,15.7 M168.2,68.2c-8.2,3.6-9.5,11.8-3,18
		c5.8,5.5,11.4,4.6,16.2-2.4C186.4,76.6,176.2,64.6,168.2,68.2 M271.4,100.5c-6.8,3.2-10,10.8-6.7,15.5
		c2.5,3.5,109.3,109.9,111.3,110.8c3.6,1.6,6.5,0.7,10.5-3.1c4.5-4.3,5.5-7.5,3.6-11.3c-1.3-2.5-109.5-110.8-111.8-111.8
		C275.7,99.5,273.7,99.4,271.4,100.5 M248,123.4c-3.1,1.5-124.9,123.3-126.4,126.3c-3.9,8.3,6.1,18,14.4,14
		c3.4-1.6,124.6-122.9,126.2-126.3C265.8,130.1,255.4,119.8,248,123.4 M100.8,137.3c-2.4,0.9-2.4,0.9-33.5,32
		c-37.2,37.1-35.7,35.1-31.1,41.8c6.4,9.4,13.5,8.7,22.6-2.1c1.7-2,14.5-15.1,28.5-29.2c28.1-28.2,28-28,27.4-32.1
		C113.8,141.7,105.6,135.5,100.8,137.3 M168.4,156.5c-3,0.8-5.4,2.8-8.7,7.2c-4.1,5.5-7.8,9.2-13.5,13.8
		c-6.5,5.2-30.8,29.5-32.3,32.5c-4.7,8.6,5.2,20.6,13.8,16.6c2.9-1.4,53.7-52,55.1-55C186.2,164.4,176.5,154.2,168.4,156.5
		 M126.4,160.6c-3.2,1.6-30.2,28.6-31.7,31.7c-4,8.2,7.4,18.3,16,14c2.9-1.5,28.7-27.1,30-29.8C144.5,168.2,134.3,156.7,126.4,160.6
		 M260,161.3c-2.7,1.3-131.9,130.6-133.2,133.2c-3.8,8,7.1,18.2,14.8,13.9c2.6-1.5,129.8-128.4,132-131.7
		C278.7,169,268.3,157.3,260,161.3 M298.6,172.6c-2.2,1-3.1,1.9-64.7,63.6c-64.6,64.8-63.1,63.2-63.1,66.9c0,4.6,7,11.7,11.6,11.7
		c3.4,0,2.8,0.6,50-46.7c67.3-67.4,79-79.3,79.8-81.1C315.5,180,305.5,169.4,298.6,172.6 M312.8,211.7c-2.6,0.8-5.1,3.2-69.6,67.8
		c-70.8,70.9-66.8,66.6-66.2,70.7c0.7,4.7,7.2,10.6,11.5,10.6c3.8,0,1.4,2.3,70-66.3c66.1-66,67.4-67.5,67.8-70.7
		C327,217.8,318.4,210,312.8,211.7 M61.3,214.5c-5.5,1.8-9.1,9.6-6.8,14.7c1.1,2.5,54.1,55.5,56.7,56.8c3.8,1.9,7.3,0.9,11.5-3.4
		c6.6-6.7,4.8-12.1-7.4-22.7c-2.3-2-13.4-12.8-24.7-23.9C67,212.6,67.1,212.6,61.3,214.5 M17,218.5c-6.3,3.3-9.4,10.1-6.8,14.6
		c2,3.3,148.2,149.3,151,150.7c7.4,3.7,17.9-6.6,14.4-14.1C174.3,367,27,219.7,24.4,218.5C22,217.4,19.1,217.4,17,218.5
		 M353.3,227.8c-1.3,0.6-3.4,2.3-5.6,4.5C310,269.7,227.9,352.6,227,354.1c-4.4,7.6,6.8,18.7,14.4,14.3c1.4-0.8,16.6-15.8,47.6-46.9
		c70.4-70.6,77.2-77.5,78.2-79.4C370.8,234.9,360.5,224.3,353.3,227.8"/>
</g>
</svg>
