<svg id="svg" version="1.1" xmlns="http://www.w3.org/2000/svg" xmlns:xlink="http://www.w3.org/1999/xlink" width="400" height="400" viewBox="0, 0, 400,400"><g id="svgg"><path id="path0" d="M28.549 16.139 C 22.295 19.124,18.896 25.807,21.237 30.516 C 22.706 33.470,147.225 157.698,150.000 158.978 C 158.600 162.944,167.972 153.434,163.946 144.826 C 162.942 142.680,39.529 18.830,36.344 16.772 C 33.713 15.072,31.210 14.869,28.549 16.139 M76.414 15.723 C 70.671 17.554,66.156 25.927,68.437 30.516 C 69.740 33.136,190.004 153.299,192.400 154.374 C 200.286 157.914,210.709 146.891,206.324 139.648 C 204.165 136.081,84.955 17.194,82.354 16.014 C 80.426 15.139,78.538 15.046,76.414 15.723 M168.200 68.163 C 160.019 71.791,158.659 79.974,165.209 86.153 C 170.994 91.611,176.605 90.787,181.437 83.772 C 186.369 76.612,176.197 64.617,168.200 68.163 M271.400 100.521 C 264.641 103.756,261.385 111.284,264.696 116.021 C 267.157 119.541,374.035 225.890,376.000 226.773 C 379.551 228.370,382.471 227.515,386.459 223.712 C 390.952 219.426,391.961 216.232,390.032 212.400 C 388.768 209.890,280.498 101.638,278.216 100.602 C 275.682 99.451,273.684 99.427,271.400 100.521 M248.000 123.425 C 244.878 124.963,123.070 246.721,121.625 249.748 C 117.676 258.026,127.704 267.775,136.021 263.744 C 139.422 262.096,260.590 140.855,262.199 137.491 C 265.753 130.057,255.387 119.788,248.000 123.425 M100.769 137.326 C 98.379 138.215,98.357 138.236,67.256 169.296 C 30.069 206.434,31.576 204.411,36.139 211.065 C 42.560 220.428,49.648 219.779,58.705 209.000 C 60.369 207.020,73.211 193.880,87.243 179.800 C 115.384 151.563,115.206 151.771,114.647 147.690 C 113.821 141.664,105.603 135.526,100.769 137.326 M168.398 156.520 C 165.412 157.360,163.023 159.343,159.725 163.719 C 155.588 169.211,151.939 172.934,146.200 177.525 C 139.682 182.738,115.434 207.062,113.850 209.976 C 109.150 218.623,119.020 230.539,127.600 226.576 C 130.545 225.216,181.279 174.573,182.720 171.556 C 186.156 164.359,176.515 154.237,168.398 156.520 M126.400 160.634 C 123.175 162.230,96.210 189.200,94.661 192.379 C 90.643 200.625,102.098 210.691,110.636 206.417 C 113.585 204.941,139.354 179.305,140.608 176.600 C 144.491 168.224,134.271 156.739,126.400 160.634 M260.000 161.260 C 257.285 162.556,128.066 291.828,126.819 294.495 C 123.065 302.527,133.909 312.693,141.600 308.350 C 144.189 306.888,271.364 179.992,273.629 176.610 C 278.733 168.992,268.335 157.281,260.000 161.260 M298.600 172.574 C 296.435 173.552,295.523 174.450,233.941 236.200 C 169.315 301.002,170.800 299.428,170.800 303.108 C 170.800 307.725,177.812 314.782,182.400 314.782 C 185.831 314.782,185.222 315.351,232.403 268.085 C 299.666 200.700,311.362 188.819,312.228 187.000 C 315.549 180.028,305.543 169.436,298.600 172.574 M312.804 211.660 C 310.182 212.435,307.716 214.836,243.161 279.476 C 172.365 350.365,176.334 346.125,176.980 350.168 C 177.728 354.845,184.191 360.813,188.484 360.791 C 192.322 360.772,189.861 363.101,258.513 294.482 C 324.570 228.456,325.937 227.032,326.298 223.825 C 326.978 217.794,318.354 210.019,312.804 211.660 M61.255 214.512 C 55.755 216.270,52.123 224.085,54.429 229.200 C 55.535 231.654,108.500 284.677,111.177 286.010 C 114.998 287.913,118.428 286.891,122.648 282.593 C 129.255 275.863,127.491 270.452,115.252 259.911 C 112.914 257.896,101.820 247.132,90.600 235.991 C 66.997 212.553,67.114 212.639,61.255 214.512 M17.015 218.471 C 10.727 221.786,7.566 228.536,10.196 233.034 C 12.152 236.379,158.427 382.375,161.179 383.728 C 168.625 387.392,179.062 377.148,175.546 369.626 C 174.303 366.966,27.034 219.697,24.374 218.454 C 22.018 217.353,19.124 217.359,17.015 218.471 M353.296 227.765 C 351.970 228.396,349.881 230.068,347.651 232.284 C 310.009 269.671,227.880 352.611,227.012 354.114 C 222.602 361.754,233.763 372.862,241.400 368.433 C 242.761 367.643,257.977 352.649,289.000 321.529 C 359.418 250.889,366.216 243.982,367.154 242.116 C 370.774 234.911,360.542 224.316,353.296 227.765 " stroke="none" fill="#eee" fill-rule="evenodd"></path><path id="path1" d="M0.000 200.000 L 0.000 400.000 200.000 400.000 L 400.000 400.000 400.000 200.000 L 400.000 0.000 200.000 0.000 L 0.000 0.000 0.000 200.000 M36.344 16.772 C 39.529 18.830,162.942 142.680,163.946 144.826 C 167.972 153.434,158.600 162.944,150.000 158.978 C 147.225 157.698,22.706 33.470,21.237 30.516 C 17.248 22.492,28.854 11.933,36.344 16.772 M82.354 16.014 C 84.955 17.194,204.165 136.081,206.324 139.648 C 210.709 146.891,200.286 157.914,192.400 154.374 C 190.004 153.299,69.740 33.136,68.437 30.516 C 64.863 23.327,75.058 12.703,82.354 16.014 M174.531 68.145 C 176.359 68.909,180.627 72.962,181.912 75.154 C 185.788 81.769,177.551 91.605,170.010 89.366 C 167.538 88.632,162.890 84.465,161.623 81.846 C 158.200 74.777,167.297 65.123,174.531 68.145 M278.216 100.602 C 280.498 101.638,388.768 209.890,390.032 212.400 C 393.614 219.512,383.315 230.062,376.000 226.773 C 374.035 225.890,267.157 119.541,264.696 116.021 C 262.082 112.280,262.731 108.564,266.744 104.300 C 271.014 99.763,274.145 98.754,278.216 100.602 M256.045 124.029 C 261.903 127.788,264.315 133.065,262.199 137.491 C 260.590 140.855,139.422 262.096,136.021 263.744 C 127.704 267.775,117.676 258.026,121.625 249.748 C 123.070 246.721,244.878 124.963,248.000 123.425 C 250.829 122.032,253.213 122.211,256.045 124.029 M107.306 138.223 C 111.358 140.904,114.223 144.600,114.647 147.690 C 115.206 151.771,115.384 151.563,87.243 179.800 C 73.211 193.880,60.369 207.020,58.705 209.000 C 50.778 218.435,46.002 219.911,39.757 214.855 C 34.032 210.220,32.791 205.648,36.000 201.009 C 37.174 199.311,96.706 139.670,98.369 138.525 C 101.206 136.573,104.637 136.456,107.306 138.223 M175.488 157.243 C 181.538 160.171,184.940 166.905,182.720 171.556 C 181.279 174.573,130.545 225.216,127.600 226.576 C 123.611 228.418,120.753 227.601,116.576 223.424 C 112.084 218.932,111.242 214.775,113.850 209.976 C 115.434 207.062,139.682 182.738,146.200 177.525 C 151.939 172.934,155.588 169.211,159.725 163.719 C 165.131 156.545,169.953 154.563,175.488 157.243 M133.403 160.628 C 139.627 163.582,143.087 171.252,140.608 176.600 C 139.354 179.305,113.585 204.941,110.636 206.417 C 105.023 209.226,97.942 206.157,94.610 199.470 C 92.008 194.248,92.635 193.288,109.961 175.961 C 127.284 158.639,128.094 158.109,133.403 160.628 M267.839 161.577 C 274.396 165.338,276.873 171.768,273.629 176.610 C 271.364 179.992,144.189 306.888,141.600 308.350 C 133.909 312.693,123.065 302.527,126.819 294.495 C 128.066 291.828,257.285 162.556,260.000 161.260 C 262.624 160.008,265.291 160.115,267.839 161.577 M304.628 172.586 C 308.436 174.177,312.951 180.010,312.975 183.372 C 313.006 187.570,317.734 182.598,232.403 268.085 C 197.200 303.351,187.008 313.345,185.600 313.976 C 178.183 317.299,168.182 306.758,171.854 299.487 C 172.822 297.568,292.133 177.207,296.187 174.058 C 298.871 171.974,301.899 171.446,304.628 172.586 M318.400 212.310 C 324.943 215.316,328.014 222.883,324.659 227.730 C 322.112 231.408,194.082 359.038,192.000 359.973 C 184.767 363.224,174.609 353.612,177.621 346.368 C 178.535 344.167,304.773 217.000,309.604 213.412 C 312.652 211.149,315.184 210.832,318.400 212.310 M68.304 214.867 C 69.772 215.538,74.802 220.304,90.600 235.991 C 101.820 247.132,112.914 257.896,115.252 259.911 C 127.491 270.452,129.255 275.863,122.648 282.593 C 118.428 286.891,114.998 287.913,111.177 286.010 C 108.500 284.677,55.535 231.654,54.429 229.200 C 50.722 220.976,60.217 211.168,68.304 214.867 M24.374 218.454 C 27.034 219.697,174.303 366.966,175.546 369.626 C 179.062 377.148,168.625 387.392,161.179 383.728 C 158.427 382.375,12.152 236.379,10.196 233.034 C 5.913 225.710,16.534 214.789,24.374 218.454 M360.568 228.160 C 364.672 230.566,368.000 235.243,368.000 238.603 C 368.000 242.563,374.077 236.184,289.000 321.529 C 257.977 352.649,242.761 367.643,241.400 368.433 C 233.763 372.862,222.602 361.754,227.012 354.114 C 227.880 352.611,310.009 269.671,347.651 232.284 C 353.212 226.760,356.428 225.733,360.568 228.160 " stroke="none" fill="#222" fill-rule="evenodd"></path></g></svg>