<?xml version="1.0" standalone="no"?>
<!DOCTYPE svg PUBLIC "-//W3C//DTD SVG 20010904//EN"
 "http://www.w3.org/TR/2001/REC-SVG-20010904/DTD/svg10.dtd">
<svg version="1.0" xmlns="http://www.w3.org/2000/svg"
 width="512.000000pt" height="512.000000pt" viewBox="0 0 512.000000 512.000000"
 preserveAspectRatio="xMidYMid meet">
<metadata>
Created by potrace 1.14, written by Peter Selinger 2001-2017
</metadata>
<g transform="translate(0.000000,512.000000) scale(0.100000,-0.100000)"
fill="#000000" stroke="none">
<path d="M0 2560 l0 -2560 2560 0 2560 0 0 2560 0 2560 -2560 0 -2560 0 0
-2560z m476 2331 c33 -25 1251 -1242 1532 -1531 105 -109 118 -139 86 -205
-22 -48 -67 -75 -122 -75 -41 0 -49 5 -160 109 -64 60 -437 430 -828 823 -504
505 -713 721 -718 742 -11 43 29 116 79 143 53 30 84 29 131 -6z m798 -188
c462 -454 926 -917 1147 -1145 215 -222 229 -239 229 -274 0 -73 -71 -144
-145 -144 -35 0 -48 9 -159 117 -259 252 -1146 1137 -1307 1305 -151 158 -169
180 -169 211 0 67 80 147 148 147 31 0 53 -19 256 -217z m988 -478 c41 -28 78
-82 78 -115 0 -66 -94 -149 -153 -135 -34 9 -94 61 -113 97 -27 53 -2 121 59
158 43 27 85 25 129 -5z m1417 -507 c279 -271 876 -867 1093 -1091 l231 -238
-6 -39 c-3 -21 -15 -53 -27 -70 -25 -35 -87 -70 -125 -70 -21 0 -130 102 -557
523 -587 577 -898 895 -912 931 -14 37 2 77 53 128 41 41 54 48 86 48 35 0 48
-9 164 -122z m-391 -198 c49 -35 72 -75 72 -124 0 -33 -28 -64 -425 -468 -384
-391 -1073 -1074 -1168 -1158 -28 -24 -47 -33 -75 -33 -78 0 -142 61 -142 135
0 33 10 49 69 115 72 81 1427 1434 1518 1516 63 57 92 60 151 17z m-1902 -182
c71 -56 94 -109 68 -160 -9 -18 -168 -186 -352 -373 -487 -495 -454 -465 -504
-465 -50 0 -108 36 -138 85 -24 38 -25 66 -6 103 8 15 196 208 418 430 400
398 404 402 444 402 28 0 51 -8 70 -22z m859 -234 c64 -30 108 -104 97 -162
-4 -18 -94 -116 -276 -301 -340 -343 -436 -431 -473 -431 -39 0 -87 32 -123
81 -34 47 -38 85 -14 132 22 42 257 281 403 410 62 55 141 133 174 174 91 111
138 132 212 97z m-522 -51 c15 -7 38 -31 52 -52 34 -51 41 -100 21 -139 -19
-37 -326 -346 -371 -373 -37 -23 -96 -24 -136 -4 -39 21 -89 91 -89 125 0 15
10 40 22 56 42 58 344 357 388 385 46 30 58 30 113 2z m1743 -36 c46 -46 60
-81 49 -124 -4 -19 -264 -286 -808 -831 -441 -442 -828 -826 -860 -853 -65
-55 -88 -59 -146 -29 -50 25 -81 75 -81 131 l0 43 853 853 852 853 49 0 c44 0
53 -4 92 -43z m440 -113 c48 -23 94 -89 94 -136 0 -35 -12 -50 -189 -235 -104
-109 -468 -476 -808 -815 l-620 -618 -47 0 c-39 0 -52 6 -85 36 -43 39 -66 91
-57 129 4 14 304 326 705 732 799 810 879 889 924 908 41 18 42 18 83 -1z
m184 -513 c41 -21 80 -83 80 -127 0 -19 -11 -47 -29 -70 -15 -21 -400 -409
-854 -861 l-826 -823 -42 0 c-76 0 -149 68 -149 139 0 29 25 58 199 239 341
354 1469 1481 1504 1502 40 25 72 25 117 1z m-3224 -21 c14 -6 133 -115 263
-243 130 -127 287 -280 348 -339 132 -127 157 -171 128 -232 -20 -42 -75 -93
-110 -102 -14 -3 -37 -3 -52 1 -28 7 -638 603 -714 698 -30 37 -39 58 -39 86
0 47 33 98 80 122 40 22 58 23 96 9z m-438 -159 c70 -65 508 -501 975 -969
l847 -850 0 -43 c0 -52 -30 -100 -81 -128 -49 -28 -81 -26 -121 6 -65 54
-1178 1156 -1549 1535 -350 357 -379 389 -379 421 0 66 80 147 147 147 30 0
50 -15 161 -119z m4203 -25 c46 -32 85 -103 75 -140 -8 -32 -528 -567 -1178
-1212 -322 -320 -443 -434 -466 -438 -41 -9 -90 13 -130 58 -26 30 -32 45 -32
83 l0 47 257 261 c743 751 1302 1310 1337 1336 48 36 89 37 137 5z"/>
</g>
</svg>
